<mxfile host="app.diagrams.net" modified="2024-03-25T03:25:36.209Z" agent="Mozilla/5.0 (Macintosh; Intel Mac OS X 10_15_7) AppleWebKit/537.36 (KHTML, like Gecko) Chrome/123.0.0.0 Safari/537.36" etag="Zhx2lcL0XKX53iRw0sG0" version="24.1.0" type="github">
  <diagram name="Page-1" id="74b105a0-9070-1c63-61bc-23e55f88626e">
    <mxGraphModel dx="2496" dy="1444" grid="1" gridSize="10" guides="1" tooltips="1" connect="1" arrows="1" fold="1" page="1" pageScale="1.5" pageWidth="1169" pageHeight="826" background="none" math="0" shadow="0">
      <root>
        <mxCell id="0" style=";html=1;" />
        <mxCell id="1" style=";html=1;" parent="0" />
        <mxCell id="10b056a9c633e61c-19" style="edgeStyle=orthogonalEdgeStyle;rounded=0;html=1;endArrow=block;endFill=1;jettySize=auto;orthogonalLoop=1;strokeWidth=2;startArrow=none;startFill=0;" parent="1" source="10b056a9c633e61c-2" target="OXvvBqYcgBK15INRSdvP-29" edge="1">
          <mxGeometry relative="1" as="geometry">
            <Array as="points">
              <mxPoint x="735" y="635" />
            </Array>
            <mxPoint x="735" y="430" as="targetPoint" />
          </mxGeometry>
        </mxCell>
        <mxCell id="10b056a9c633e61c-21" style="edgeStyle=orthogonalEdgeStyle;rounded=0;html=1;endArrow=block;endFill=1;jettySize=auto;orthogonalLoop=1;strokeWidth=2;startArrow=none;startFill=0;entryX=0.5;entryY=0;entryDx=0;entryDy=0;entryPerimeter=0;" parent="1" source="10b056a9c633e61c-2" target="10b056a9c633e61c-14" edge="1">
          <mxGeometry relative="1" as="geometry">
            <Array as="points">
              <mxPoint x="735" y="635" />
            </Array>
          </mxGeometry>
        </mxCell>
        <mxCell id="10b056a9c633e61c-2" value="Webex BOT(SpeedyBot)" style="strokeWidth=2;dashed=0;align=center;fontSize=12;fillColor=#c0f5a9;verticalLabelPosition=bottom;verticalAlign=top;shape=mxgraph.eip.recipient_list;" parent="1" vertex="1">
          <mxGeometry x="440" y="590" width="150" height="90" as="geometry" />
        </mxCell>
        <mxCell id="10b056a9c633e61c-17" style="edgeStyle=orthogonalEdgeStyle;rounded=0;html=1;endArrow=block;endFill=1;jettySize=auto;orthogonalLoop=1;strokeWidth=2;startArrow=none;startFill=0;entryX=0;entryY=0.5;entryDx=0;entryDy=0;entryPerimeter=0;" parent="1" source="10b056a9c633e61c-4" target="10b056a9c633e61c-2" edge="1">
          <mxGeometry relative="1" as="geometry">
            <mxPoint x="382" y="635" as="targetPoint" />
          </mxGeometry>
        </mxCell>
        <mxCell id="10b056a9c633e61c-4" value="Webex Space" style="strokeWidth=2;dashed=0;align=center;fontSize=12;shape=rect;verticalLabelPosition=bottom;verticalAlign=top;fillColor=#c0f5a9" parent="1" vertex="1">
          <mxGeometry x="172" y="590" width="150" height="90" as="geometry" />
        </mxCell>
        <mxCell id="10b056a9c633e61c-5" value="" style="strokeWidth=1;dashed=0;align=center;fontSize=8;shape=rect;fillColor=#ffffff;strokeColor=#000000;" parent="10b056a9c633e61c-4" vertex="1">
          <mxGeometry x="85" y="25" width="40" height="40" as="geometry" />
        </mxCell>
        <mxCell id="10b056a9c633e61c-22" style="edgeStyle=orthogonalEdgeStyle;rounded=0;html=1;endArrow=block;endFill=1;jettySize=auto;orthogonalLoop=1;strokeWidth=2;startArrow=none;startFill=0;entryX=0.25;entryY=0;entryDx=0;entryDy=0;exitX=1;exitY=0.5;exitDx=0;exitDy=0;exitPerimeter=0;" parent="1" source="OXvvBqYcgBK15INRSdvP-29" target="OXvvBqYcgBK15INRSdvP-6" edge="1">
          <mxGeometry relative="1" as="geometry">
            <mxPoint x="735" y="430" as="sourcePoint" />
            <mxPoint x="1192" y="415" as="targetPoint" />
          </mxGeometry>
        </mxCell>
        <mxCell id="10b056a9c633e61c-23" style="edgeStyle=orthogonalEdgeStyle;rounded=0;html=1;endArrow=block;endFill=1;jettySize=auto;orthogonalLoop=1;strokeWidth=2;startArrow=none;startFill=0;entryX=0;entryY=0.5;entryDx=0;entryDy=0;" parent="1" source="10b056a9c633e61c-8" target="OXvvBqYcgBK15INRSdvP-24" edge="1">
          <mxGeometry relative="1" as="geometry">
            <mxPoint x="1500" y="525" as="targetPoint" />
          </mxGeometry>
        </mxCell>
        <mxCell id="10b056a9c633e61c-24" style="edgeStyle=orthogonalEdgeStyle;rounded=0;html=1;endArrow=block;endFill=1;jettySize=auto;orthogonalLoop=1;strokeWidth=2;startArrow=none;startFill=0;entryX=0.25;entryY=1;entryDx=0;entryDy=0;" parent="1" source="10b056a9c633e61c-14" target="OXvvBqYcgBK15INRSdvP-6" edge="1">
          <mxGeometry relative="1" as="geometry">
            <mxPoint x="1192" y="885" as="targetPoint" />
          </mxGeometry>
        </mxCell>
        <mxCell id="10b056a9c633e61c-14" value="TextÂ &#xa;classification" style="strokeWidth=2;dashed=0;align=center;fontSize=12;fillColor=#c0f5a9;verticalLabelPosition=bottom;verticalAlign=top;shape=mxgraph.eip.composed_message_processor;" parent="1" vertex="1">
          <mxGeometry x="660" y="810" width="150" height="90" as="geometry" />
        </mxCell>
        <mxCell id="10b056a9c633e61c-30" value="Title" style="text;strokeColor=none;fillColor=none;html=1;fontSize=24;fontStyle=1;verticalAlign=middle;align=center;" parent="1" vertex="1">
          <mxGeometry x="80" y="40" width="1590" height="40" as="geometry" />
        </mxCell>
        <mxCell id="OXvvBqYcgBK15INRSdvP-28" style="edgeStyle=orthogonalEdgeStyle;rounded=0;orthogonalLoop=1;jettySize=auto;html=1;exitX=1;exitY=0.5;exitDx=0;exitDy=0;" edge="1" parent="1" source="OXvvBqYcgBK15INRSdvP-6" target="10b056a9c633e61c-8">
          <mxGeometry relative="1" as="geometry" />
        </mxCell>
        <mxCell id="OXvvBqYcgBK15INRSdvP-6" value="Topics" style="strokeWidth=2;dashed=0;align=center;fontSize=12;shape=rect;verticalLabelPosition=top;verticalAlign=bottom;fillColor=#F5F4D8;labelPosition=center;rounded=1;shadow=0;" vertex="1" parent="1">
          <mxGeometry x="780" y="540" width="440" height="190" as="geometry" />
        </mxCell>
        <mxCell id="OXvvBqYcgBK15INRSdvP-8" value="API" style="strokeWidth=1;dashed=0;align=center;fontSize=11;shape=rect;fillColor=#ffffff;strokeColor=#000000;" vertex="1" parent="OXvvBqYcgBK15INRSdvP-6">
          <mxGeometry x="32.66" y="24.782608695652176" width="117.34" height="24.782608695652176" as="geometry" />
        </mxCell>
        <mxCell id="OXvvBqYcgBK15INRSdvP-9" value="URL" style="strokeWidth=1;dashed=0;align=center;fontSize=11;shape=rect;fillColor=#ffffff;strokeColor=#000000;" vertex="1" parent="OXvvBqYcgBK15INRSdvP-6">
          <mxGeometry x="166.33000000000015" y="24.782608695652176" width="117.34" height="24.782608695652176" as="geometry" />
        </mxCell>
        <mxCell id="OXvvBqYcgBK15INRSdvP-10" value="Event" style="strokeWidth=1;dashed=0;align=center;fontSize=11;shape=rect;fillColor=#ffffff;strokeColor=#000000;" vertex="1" parent="OXvvBqYcgBK15INRSdvP-6">
          <mxGeometry x="300.0000000000002" y="24.782608695652176" width="117.34" height="24.782608695652176" as="geometry" />
        </mxCell>
        <mxCell id="OXvvBqYcgBK15INRSdvP-13" value="Test case" style="strokeWidth=1;dashed=0;align=center;fontSize=11;shape=rect;fillColor=#ffffff;strokeColor=#000000;" vertex="1" parent="OXvvBqYcgBK15INRSdvP-6">
          <mxGeometry x="300.0000000000002" y="66.08695652173913" width="117.34" height="24.782608695652176" as="geometry" />
        </mxCell>
        <mxCell id="OXvvBqYcgBK15INRSdvP-14" value="Meeting" style="strokeWidth=1;dashed=0;align=center;fontSize=11;shape=rect;fillColor=#ffffff;strokeColor=#000000;" vertex="1" parent="OXvvBqYcgBK15INRSdvP-6">
          <mxGeometry x="166.33000000000015" y="66.08695652173913" width="117.34" height="24.782608695652176" as="geometry" />
        </mxCell>
        <mxCell id="OXvvBqYcgBK15INRSdvP-15" value="PR" style="strokeWidth=1;dashed=0;align=center;fontSize=11;shape=rect;fillColor=#ffffff;strokeColor=#000000;" vertex="1" parent="OXvvBqYcgBK15INRSdvP-6">
          <mxGeometry x="32.66000000000008" y="66.08695652173913" width="117.34" height="24.782608695652176" as="geometry" />
        </mxCell>
        <mxCell id="OXvvBqYcgBK15INRSdvP-16" value="Others?" style="strokeWidth=1;dashed=0;align=center;fontSize=11;shape=rect;fillColor=#ffffff;strokeColor=#000000;" vertex="1" parent="OXvvBqYcgBK15INRSdvP-6">
          <mxGeometry x="300.0000000000002" y="107.3913043478261" width="117.34" height="24.782608695652176" as="geometry" />
        </mxCell>
        <mxCell id="OXvvBqYcgBK15INRSdvP-17" value="Person" style="strokeWidth=1;dashed=0;align=center;fontSize=11;shape=rect;fillColor=#ffffff;strokeColor=#000000;" vertex="1" parent="OXvvBqYcgBK15INRSdvP-6">
          <mxGeometry x="166.33000000000015" y="107.3913043478261" width="117.34" height="24.782608695652176" as="geometry" />
        </mxCell>
        <mxCell id="OXvvBqYcgBK15INRSdvP-18" value="Feature toggle" style="strokeWidth=1;dashed=0;align=center;fontSize=11;shape=rect;fillColor=#ffffff;strokeColor=#000000;" vertex="1" parent="OXvvBqYcgBK15INRSdvP-6">
          <mxGeometry x="32.66000000000008" y="107.3913043478261" width="117.34" height="24.782608695652176" as="geometry" />
        </mxCell>
        <mxCell id="OXvvBqYcgBK15INRSdvP-25" value="" style="group" vertex="1" connectable="0" parent="1">
          <mxGeometry x="1270" y="590" width="150" height="90" as="geometry" />
        </mxCell>
        <mxCell id="10b056a9c633e61c-8" value="Atlassian Wiki API" style="strokeWidth=2;dashed=0;align=center;fontSize=12;shape=rect;verticalLabelPosition=bottom;verticalAlign=top;fillColor=#c0f5a9" parent="OXvvBqYcgBK15INRSdvP-25" vertex="1">
          <mxGeometry width="150" height="90" as="geometry" />
        </mxCell>
        <mxCell id="OXvvBqYcgBK15INRSdvP-22" value="" style="aspect=fixed;sketch=0;html=1;dashed=0;whitespace=wrap;fillColor=#2875E2;strokeColor=#ffffff;points=[[0.005,0.63,0],[0.1,0.2,0],[0.9,0.2,0],[0.5,0,0],[0.995,0.63,0],[0.72,0.99,0],[0.5,1,0],[0.28,0.99,0]];shape=mxgraph.kubernetes.icon2;prIcon=api" vertex="1" parent="OXvvBqYcgBK15INRSdvP-25">
          <mxGeometry x="50" y="21" width="50" height="48" as="geometry" />
        </mxCell>
        <mxCell id="OXvvBqYcgBK15INRSdvP-26" value="" style="group" vertex="1" connectable="0" parent="1">
          <mxGeometry x="1490" y="589.57" width="150" height="90" as="geometry" />
        </mxCell>
        <mxCell id="OXvvBqYcgBK15INRSdvP-27" value="" style="group" vertex="1" connectable="0" parent="OXvvBqYcgBK15INRSdvP-26">
          <mxGeometry width="150" height="90" as="geometry" />
        </mxCell>
        <mxCell id="OXvvBqYcgBK15INRSdvP-24" value="Wiki page" style="strokeWidth=2;dashed=0;align=center;fontSize=12;shape=rect;verticalLabelPosition=bottom;verticalAlign=top;fillColor=#c0f5a9" vertex="1" parent="OXvvBqYcgBK15INRSdvP-27">
          <mxGeometry width="150" height="90" as="geometry" />
        </mxCell>
        <mxCell id="OXvvBqYcgBK15INRSdvP-23" value="" style="sketch=0;pointerEvents=1;shadow=0;dashed=0;html=1;strokeColor=none;fillColor=#505050;labelPosition=center;verticalLabelPosition=bottom;verticalAlign=top;outlineConnect=0;align=center;shape=mxgraph.office.sites.wiki_site;" vertex="1" parent="OXvvBqYcgBK15INRSdvP-27">
          <mxGeometry x="45.5" y="20" width="59" height="50" as="geometry" />
        </mxCell>
        <mxCell id="OXvvBqYcgBK15INRSdvP-29" value="Topic&#xa;modelling" style="strokeWidth=2;dashed=0;align=center;fontSize=12;fillColor=#c0f5a9;verticalLabelPosition=top;verticalAlign=bottom;shape=mxgraph.eip.composed_message_processor;labelPosition=center;" vertex="1" parent="1">
          <mxGeometry x="660" y="410" width="150" height="90" as="geometry" />
        </mxCell>
      </root>
    </mxGraphModel>
  </diagram>
</mxfile>
